<svg width="18" height="18" viewBox="0 0 18 18" fill="none" xmlns="http://www.w3.org/2000/svg">
<path d="M8.65771 17.3154C7.4624 17.3154 6.3418 17.0885 5.2959 16.6348C4.25 16.1865 3.32861 15.564 2.53174 14.7671C1.7404 13.9757 1.12061 13.0599 0.672363 12.0195C0.224121 10.9736 0 9.85303 0 8.65771C0 7.4624 0.224121 6.3418 0.672363 5.2959C1.12061 4.25 1.7404 3.33138 2.53174 2.54004C3.32861 1.74316 4.25 1.12061 5.2959 0.672363C6.3418 0.224121 7.4624 0 8.65771 0C9.85303 0 10.9736 0.224121 12.0195 0.672363C13.0654 1.12061 13.984 1.74316 14.7754 2.54004C15.5667 3.33138 16.1865 4.25 16.6348 5.2959C17.0885 6.3418 17.3154 7.4624 17.3154 8.65771C17.3154 9.85303 17.0885 10.9736 16.6348 12.0195C16.1865 13.0599 15.5667 13.9757 14.7754 14.7671C13.984 15.564 13.0654 16.1865 12.0195 16.6348C10.9736 17.0885 9.85303 17.3154 8.65771 17.3154ZM8.65771 4.2832C8.5415 4.2832 8.42806 4.30534 8.31738 4.34961C8.20671 4.38835 8.09326 4.46582 7.97705 4.58203L5.17139 7.27979C5.09391 7.35726 5.03304 7.44027 4.98877 7.52881C4.95003 7.61735 4.93066 7.71973 4.93066 7.83594C4.93066 8.05176 5.00537 8.22884 5.15479 8.36719C5.30973 8.50553 5.48958 8.57471 5.69434 8.57471C5.93229 8.57471 6.12874 8.48893 6.28369 8.31738L7.4126 7.11377L7.85254 6.52441L7.77783 7.79443V12.1689C7.77783 12.4014 7.86361 12.6034 8.03516 12.7749C8.20671 12.9465 8.41423 13.0322 8.65771 13.0322C8.9012 13.0322 9.10872 12.9465 9.28027 12.7749C9.45182 12.6034 9.5376 12.4014 9.5376 12.1689V7.79443L9.46289 6.52441L9.90283 7.11377L11.04 8.31738C11.1895 8.48893 11.3831 8.57471 11.6211 8.57471C11.8258 8.57471 12.0029 8.50553 12.1523 8.36719C12.3073 8.22884 12.3848 8.05176 12.3848 7.83594C12.3848 7.71973 12.3626 7.61735 12.3184 7.52881C12.2796 7.44027 12.2215 7.35726 12.144 7.27979L9.33838 4.58203C9.22217 4.46582 9.10872 4.38835 8.99805 4.34961C8.88737 4.30534 8.77393 4.2832 8.65771 4.2832Z" fill="white" fill-opacity="0.1" style="mix-blend-mode:plus-lighter"/>
</svg>
