<svg width="9" height="9" viewBox="0 0 9 9" fill="none" xmlns="http://www.w3.org/2000/svg">
<path d="M0 2.12695C0 1.93001 0.0662435 1.7653 0.19873 1.63281C0.331217 1.50033 0.486979 1.43408 0.666016 1.43408C0.848633 1.43408 1.00081 1.50033 1.12256 1.63281C1.24788 1.7653 1.31055 1.92643 1.31055 2.11621V4.13574L1.22998 6.13916L2.08398 5.17773L7.04688 0.214844C7.19368 0.0716146 7.35661 0 7.53564 0C7.65739 0 7.77018 0.0322266 7.87402 0.0966797C7.97786 0.161133 8.06201 0.24528 8.12646 0.349121C8.19092 0.452962 8.22314 0.563965 8.22314 0.682129C8.22314 0.861165 8.14974 1.02409 8.00293 1.1709L3.04541 6.13379L2.08398 6.98779L4.16797 6.9126H6.1123C6.2985 6.9126 6.45785 6.97526 6.59033 7.10059C6.72282 7.22591 6.78906 7.37809 6.78906 7.55713C6.78906 7.73617 6.72461 7.89014 6.5957 8.01904C6.4668 8.15153 6.30208 8.21777 6.10156 8.21777H0.714355C0.495931 8.21777 0.322266 8.15153 0.193359 8.01904C0.0680339 7.89014 0.00537109 7.72184 0.00537109 7.51416L0 2.12695Z" fill="white" fill-opacity="0.4" style="mix-blend-mode:plus-lighter"/>
</svg>
