<svg width="943" height="561" viewBox="0 0 943 561" fill="none" xmlns="http://www.w3.org/2000/svg">
<g clip-path="url(#clip0_916_66116)">
<path d="M628.04 172.01V0H583.54C583.43 0 582.04 1.39 582.04 1.5V171H46.04C55.69 134.51 74.75 98.81 104.57 75.02C135.25 50.55 174.16 39.9 213.04 38V0C163.07 0.37 113.52 15.86 74.14 46.6C30.47 80.71 1.03 128.7 0 185.46L0.04 560.01H44.54C44.64 560.01 46.04 558.61 46.04 558.51V216.51C46.04 216.4 47.43 215.01 47.54 215.01H269.04C269.57 217.42 268.62 216.63 267.73 217.24C259.75 222.75 251.31 226.48 243.57 233.04C201.73 268.49 171.45 327.87 176.05 383.5C185.47 497.43 287.73 573.06 399.52 558.99C479.48 548.93 552.38 501.5 574.04 421.01H532.54C529.89 421.01 521.12 443.3 518.84 447.31C483.81 509.1 394.37 534.46 328.52 515.02C263.97 495.97 227.45 441.18 216.04 377.01H583.04C582.61 452.3 640.16 519.65 708.52 545.02C736 555.22 765.69 559.98 795.04 560.01V519.01C789.41 517.04 783.35 518.53 777.55 518C696.28 510.5 627.82 455.48 627 369.56C626.95 364.88 628.08 360.52 628.08 356.55C628.13 309.37 627.95 262.17 628.04 215.01H806.04V560.01H851.04V215.01H872.54C872.64 215.01 874.04 216.4 874.04 216.51V560.01H919.04V172.01H628.04ZM221.04 339.01C241.26 251.94 341.86 209.56 424.03 231.51C456.87 240.28 494.24 263.82 513.85 291.69C523.47 305.36 532.5 322.45 535.04 339.01H221.04ZM581.54 367.02C577.54 314.77 552.63 267.17 513.05 233.49C506.1 227.57 498.3 222.8 491.3 217.29C490.49 216.65 489.48 217.34 490.04 215.01H581.54V367.02Z" fill="white"/>
<path d="M837.561 0L873.941 23.33L817.541 89.98L816.711 87.21C825.041 60.87 827.291 28.19 836.081 2.55C836.421 1.54 836.411 0.62 837.561 0Z" fill="white"/>
<path d="M906.569 0L942.019 21.52L942.929 24.32L886.539 89.98L906.569 0Z" fill="white"/>
</g>
<defs>
<clipPath id="clip0_916_66116">
<rect width="942.93" height="560.67" fill="white"/>
</clipPath>
</defs>
</svg>
