<svg width="15" height="3" viewBox="0 0 15 3" fill="none" xmlns="http://www.w3.org/2000/svg">
<path d="M1.23682 2.51514C1.02653 2.51514 0.827311 2.45703 0.63916 2.34082C0.451009 2.22461 0.296061 2.07243 0.174316 1.88428C0.0581055 1.69059 0 1.48031 0 1.25342C0 1.02653 0.0581055 0.81901 0.174316 0.630859C0.296061 0.437174 0.451009 0.284993 0.63916 0.174316C0.827311 0.0581055 1.02653 0 1.23682 0H12.9741C13.1955 0 13.4002 0.0581055 13.5884 0.174316C13.7765 0.284993 13.9259 0.437174 14.0366 0.630859C14.1528 0.81901 14.2109 1.02653 14.2109 1.25342C14.2109 1.48031 14.1528 1.69059 14.0366 1.88428C13.9259 2.07243 13.7765 2.22461 13.5884 2.34082C13.4002 2.45703 13.1955 2.51514 12.9741 2.51514H1.23682Z" fill="white" fill-opacity="0.8" style="mix-blend-mode:plus-lighter"/>
</svg>
