<svg width="15" height="15" viewBox="0 0 15 15" fill="none" xmlns="http://www.w3.org/2000/svg">
<path d="M0 7.12207C0 6.77344 0.121745 6.47738 0.365234 6.23389C0.614258 5.98486 0.913086 5.86035 1.26172 5.86035H5.86865V1.26172C5.86865 0.913086 5.9904 0.617025 6.23389 0.373535C6.47738 0.124512 6.77344 0 7.12207 0C7.4707 0 7.76676 0.124512 8.01025 0.373535C8.25928 0.617025 8.38379 0.913086 8.38379 1.26172V5.86035H12.9907C13.3338 5.86035 13.6271 5.98486 13.8706 6.23389C14.1196 6.47738 14.2441 6.77344 14.2441 7.12207C14.2441 7.4707 14.1196 7.76953 13.8706 8.01855C13.6271 8.26204 13.3338 8.38379 12.9907 8.38379H8.38379V12.9907C8.38379 13.3338 8.25928 13.6271 8.01025 13.8706C7.76676 14.1196 7.4707 14.2441 7.12207 14.2441C6.77344 14.2441 6.47738 14.1196 6.23389 13.8706C5.9904 13.6271 5.86865 13.3338 5.86865 12.9907V8.38379H1.26172C0.913086 8.38379 0.614258 8.26204 0.365234 8.01855C0.121745 7.76953 0 7.4707 0 7.12207Z" fill="white" fill-opacity="0.8" style="mix-blend-mode:plus-lighter"/>
</svg>
